<svg width="768" height="768" viewBox="0 0 48 48" xmlns="http://www.w3.org/2000/svg" shape-rendering="crispEdges"><rect x="24" y="1" width="2" height="1" fill="#C0C0C0"/><rect x="20" y="2" width="2" height="1" fill="#C0C0C0"/><rect x="23" y="2" width="1" height="2" fill="#C0C0C0"/><rect x="26" y="2" width="1" height="2" fill="#C0C0C0"/><rect x="28" y="2" width="2" height="1" fill="#C0C0C0"/><rect x="19" y="3" width="1" height="2" fill="#C0C0C0"/><rect x="22" y="3" width="1" height="2" fill="#C0C0C0"/><rect x="27" y="3" width="1" height="2" fill="#C0C0C0"/><rect x="30" y="3" width="1" height="2" fill="#C0C0C0"/><rect x="24" y="2" width="2" height="2" fill="#DC143C"/><rect x="20" y="3" width="2" height="2" fill="#DC143C"/><rect x="28" y="3" width="2" height="2" fill="#DC143C"/><rect x="24" y="6" width="2" height="2" fill="#DC143C"/><rect x="24" y="4" width="1" height="2" fill="#FFD700"/><rect x="20" y="5" width="1" height="5" fill="#FFD700"/><rect x="28" y="5" width="1" height="4" fill="#FFD700"/><rect x="22" y="6" width="2" height="3" fill="#FFD700"/><rect x="26" y="6" width="2" height="3" fill="#FFD700"/><rect x="21" y="7" width="1" height="2" fill="#FFD700"/><rect x="24" y="8" width="2" height="1" fill="#FFD700"/><rect x="29" y="8" width="1" height="2" fill="#FFD700"/><rect x="25" y="4" width="1" height="2" fill="#FFFFE0"/><rect x="21" y="5" width="1" height="2" fill="#FFFFE0"/><rect x="29" y="5" width="1" height="3" fill="#FFFFE0"/></svg>