<svg viewBox="0 0 24 24" xmlns="http://www.w3.org/2000/svg">
  <!-- ザクのヒートホーク（トマホーク型） -->
  <!-- 柄 -->
  <rect x="11" y="10" width="2" height="10" fill="#404040"/>
  <rect x="10" y="11" width="4" height="1" fill="#606060"/>
  <rect x="10" y="18" width="4" height="1" fill="#606060"/>
  <rect x="11" y="19" width="2" height="1" fill="#303030"/>
  
  <!-- 柄とヘッドの接続部 -->
  <rect x="10" y="8" width="4" height="2" fill="#808080"/>
  <rect x="9" y="9" width="6" height="1" fill="#606060"/>
  
  <!-- ヘッド本体（トマホーク形状） -->
  <!-- 後部 -->
  <rect x="6" y="6" width="4" height="4" fill="#404040"/>
  <rect x="5" y="7" width="1" height="2" fill="#404040"/>
  
  <!-- 前部（刃） -->
  <rect x="12" y="5" width="2" height="5" fill="#404040"/>
  <rect x="14" y="4" width="2" height="7" fill="#404040"/>
  <rect x="16" y="3" width="2" height="9" fill="#404040"/>
  <rect x="18" y="4" width="1" height="7" fill="#404040"/>
  
  <!-- ヒートエッジ（オレンジの熱部分） -->
  <rect x="19" y="4" width="1" height="7" fill="#FF4500"/>
  <rect x="18" y="3" width="1" height="1" fill="#FF6347"/>
  <rect x="18" y="11" width="1" height="1" fill="#FF6347"/>
  <rect x="17" y="2" width="1" height="1" fill="#FF6347"/>
  <rect x="17" y="12" width="1" height="1" fill="#FF6347"/>
  
  <!-- 内部のヒート部分 -->
  <rect x="16" y="4" width="1" height="6" fill="#CD4F39"/>
  <rect x="17" y="5" width="1" height="4" fill="#FF6347"/>
  
  <!-- ヒートグロー効果 -->
  <rect x="15" y="2" width="5" height="11" fill="#FF4500" opacity="0">
    <animate attributeName="opacity" values="0;0.4;0" dur="1.2s" repeatCount="indefinite"/>
  </rect>
  
  <!-- メタリックハイライト -->
  <rect x="11" y="6" width="1" height="3" fill="#A0A0A0"/>
  <rect x="7" y="7" width="1" height="1" fill="#A0A0A0"/>
</svg>