<svg viewBox="0 0 24 24" xmlns="http://www.w3.org/2000/svg">
  <!-- 近未来的メカシールド -->
  <!-- 外枠（メタル） -->
  <rect x="7" y="4" width="2" height="4" fill="#808080"/>
  <rect x="11" y="2" width="2" height="6" fill="#808080"/>
  <rect x="15" y="4" width="2" height="4" fill="#808080"/>
  <rect x="7" y="8" width="10" height="2" fill="#808080"/>
  <rect x="6" y="10" width="12" height="4" fill="#808080"/>
  <rect x="7" y="14" width="10" height="2" fill="#808080"/>
  <rect x="8" y="16" width="8" height="2" fill="#808080"/>
  <rect x="10" y="18" width="4" height="2" fill="#808080"/>
  
  <!-- 内部パネル（ダークメタル） -->
  <rect x="8" y="5" width="8" height="2" fill="#404040"/>
  <rect x="7" y="7" width="10" height="1" fill="#404040"/>
  <rect x="7" y="10" width="10" height="4" fill="#404040"/>
  <rect x="8" y="14" width="8" height="2" fill="#404040"/>
  <rect x="9" y="16" width="6" height="2" fill="#404040"/>
  
  <!-- エネルギーコア -->
  <rect x="11" y="8" width="2" height="6" fill="#00FFFF"/>
  <rect x="9" y="10" width="6" height="2" fill="#00FFFF"/>
  
  <!-- エネルギーフィールド効果 -->
  <rect x="10" y="9" width="4" height="4" fill="#00FFFF" opacity="0.3">
    <animate attributeName="opacity" values="0.3;0.6;0.3" dur="2s" repeatCount="indefinite"/>
  </rect>
  
  <!-- メカニカルディテール -->
  <rect x="8" y="6" width="1" height="1" fill="#C0C0C0"/>
  <rect x="15" y="6" width="1" height="1" fill="#C0C0C0"/>
  <rect x="8" y="11" width="1" height="1" fill="#C0C0C0"/>
  <rect x="15" y="11" width="1" height="1" fill="#C0C0C0"/>
  
  <!-- ハイライト -->
  <rect x="7" y="4" width="1" height="2" fill="#A0A0A0"/>
  <rect x="11" y="2" width="1" height="2" fill="#A0A0A0"/>
  <rect x="15" y="4" width="1" height="2" fill="#A0A0A0"/>
  
  <!-- LEDインジケーター -->
  <rect x="10" y="5" width="1" height="1" fill="#00FF00">
    <animate attributeName="fill" values="#00FF00;#FFFF00;#00FF00" dur="1.5s" repeatCount="indefinite"/>
  </rect>
  <rect x="13" y="5" width="1" height="1" fill="#00FF00">
    <animate attributeName="fill" values="#00FF00;#FFFF00;#00FF00" dur="1.5s" begin="0.5s" repeatCount="indefinite"/>
  </rect>
</svg>