<svg viewBox="0 0 24 24" xmlns="http://www.w3.org/2000/svg">
  <!-- 魔法使いの杖 (2/3サイズ) -->
  <!-- 杖の柄（メタル） -->
  <rect x="11" y="8" width="1" height="10" fill="#606060"/>
  <rect x="10" y="9" width="1" height="8" fill="#404040"/>
  <rect x="12" y="9" width="1" height="8" fill="#808080"/>
  <!-- 宝珠部分 -->
  <rect x="9" y="4" width="5" height="1" fill="#9370DB"/>
  <rect x="8" y="5" width="7" height="1" fill="#9370DB"/>
  <rect x="8" y="6" width="7" height="1" fill="#9370DB"/>
  <rect x="8" y="7" width="7" height="1" fill="#9370DB"/>
  <rect x="9" y="8" width="5" height="1" fill="#9370DB"/>
  <!-- 宝珠の光 -->
  <rect x="10" y="5" width="2" height="1" fill="#DDA0DD"/>
  <rect x="11" y="6" width="2" height="1" fill="#DDA0DD"/>
  <!-- 宝珠の影 -->
  <rect x="8" y="7" width="2" height="1" fill="#6A0DAD"/>
  <rect x="13" y="7" width="2" height="1" fill="#6A0DAD"/>
  <!-- 魔法の輝き -->
  <rect x="11" y="2" width="1" height="1" fill="#FFD700"/>
  <rect x="7" y="5" width="1" height="1" fill="#FFD700"/>
  <rect x="15" y="5" width="1" height="1" fill="#FFD700"/>
  <rect x="11" y="9" width="1" height="1" fill="#FFD700"/>
  <!-- 杖の底 -->
  <rect x="10" y="18" width="3" height="1" fill="#303030"/>
  <!-- メタリックハイライト -->
  <rect x="11" y="10" width="1" height="2" fill="#A0A0A0"/>
  <rect x="11" y="14" width="1" height="1" fill="#909090"/>
</svg>