<svg width="768" height="768" viewBox="0 0 48 48" xmlns="http://www.w3.org/2000/svg" shape-rendering="crispEdges"><rect x="33" y="28" width="10" height="1" fill="#696969"/><rect x="42" y="29" width="1" height="2" fill="#696969"/><rect x="34" y="30" width="8" height="1" fill="#696969"/><rect x="43" y="30" width="1" height="3" fill="#696969"/><rect x="32" y="31" width="1" height="2" fill="#696969"/><rect x="33" y="32" width="4" height="1" fill="#696969"/><rect x="39" y="32" width="4" height="1" fill="#696969"/><rect x="44" y="32" width="1" height="6" fill="#696969"/><rect x="31" y="34" width="1" height="4" fill="#696969"/><rect x="32" y="37" width="1" height="3" fill="#696969"/><rect x="43" y="37" width="1" height="3" fill="#696969"/><rect x="33" y="39" width="1" height="3" fill="#696969"/><rect x="42" y="39" width="1" height="3" fill="#696969"/><rect x="34" y="41" width="2" height="1" fill="#696969"/><rect x="40" y="41" width="2" height="1" fill="#696969"/><rect x="35" y="42" width="1" height="2" fill="#696969"/><rect x="40" y="42" width="1" height="2" fill="#696969"/><rect x="36" y="43" width="4" height="1" fill="#696969"/><rect x="33" y="29" width="1" height="1" fill="#808080"/><rect x="34" y="29" width="8" height="1" fill="#2F2F2F"/><rect x="33" y="31" width="4" height="1" fill="#2F2F2F"/><rect x="39" y="31" width="4" height="1" fill="#2F2F2F"/><rect x="32" y="33" width="5" height="1" fill="#2F2F2F"/><rect x="39" y="33" width="5" height="1" fill="#2F2F2F"/><rect x="32" y="34" width="2" height="3" fill="#2F2F2F"/><rect x="42" y="34" width="2" height="3" fill="#2F2F2F"/><rect x="34" y="36" width="3" height="5" fill="#2F2F2F"/><rect x="39" y="36" width="3" height="5" fill="#2F2F2F"/><rect x="33" y="37" width="1" height="2" fill="#2F2F2F"/><rect x="42" y="37" width="1" height="2" fill="#2F2F2F"/><rect x="36" y="41" width="4" height="2" fill="#2F2F2F"/><rect x="32" y="30" width="2" height="1" fill="#A9A9A9"/><rect x="31" y="32" width="1" height="2" fill="#A9A9A9"/><rect x="37" y="31" width="2" height="10" fill="#FFD700"/><rect x="34" y="34" width="3" height="2" fill="#FFD700"/><rect x="39" y="34" width="3" height="2" fill="#FFD700"/></svg>