<svg width="768" height="768" viewBox="0 0 48 48" xmlns="http://www.w3.org/2000/svg" shape-rendering="crispEdges"><rect x="35" y="29" width="9" height="1" fill="#E0E0E0"/><rect x="38" y="30" width="6" height="2" fill="#E0E0E0"/><rect x="35" y="31" width="1" height="5" fill="#E0E0E0"/><rect x="43" y="32" width="1" height="4" fill="#E0E0E0"/><rect x="36" y="35" width="1" height="1" fill="#E0E0E0"/><rect x="42" y="35" width="1" height="2" fill="#E0E0E0"/><rect x="37" y="36" width="1" height="2" fill="#E0E0E0"/><rect x="41" y="36" width="1" height="2" fill="#E0E0E0"/><rect x="38" y="37" width="3" height="1" fill="#E0E0E0"/><rect x="39" y="38" width="1" height="5" fill="#E0E0E0"/><rect x="38" y="41" width="1" height="2" fill="#E0E0E0"/><rect x="40" y="41" width="1" height="2" fill="#E0E0E0"/><rect x="37" y="42" width="1" height="1" fill="#E0E0E0"/><rect x="41" y="42" width="1" height="1" fill="#E0E0E0"/><rect x="35" y="30" width="3" height="1" fill="#FFF"/><rect x="36" y="31" width="2" height="1" fill="#FFF"/><rect x="36" y="32" width="1" height="2" fill="#FFF"/><rect x="36" y="36" width="1" height="1" fill="#FFF"/><rect x="37" y="32" width="2" height="2" fill="#FFE0E0"/><rect x="39" y="32" width="4" height="1" fill="#FF1744"/><rect x="39" y="33" width="4" height="2" fill="#DC143C"/><rect x="36" y="34" width="3" height="1" fill="#DC143C"/><rect x="37" y="35" width="5" height="1" fill="#DC143C"/><rect x="38" y="36" width="3" height="1" fill="#DC143C"/></svg>