<svg viewBox="0 0 24 24" xmlns="http://www.w3.org/2000/svg">
  <!-- ピクセルアート風のソフトクリーム -->
  <!-- クリーム部分 -->
  <rect x="11" y="3" width="2" height="2" fill="#FFF8DC"/>
  <rect x="10" y="5" width="4" height="2" fill="#FFF8DC"/>
  <rect x="9" y="7" width="6" height="2" fill="#FFF8DC"/>
  <rect x="8" y="9" width="8" height="2" fill="#FFF8DC"/>
  <rect x="9" y="11" width="6" height="2" fill="#FFF8DC"/>
  <rect x="10" y="13" width="4" height="1" fill="#FFF8DC"/>
  <!-- ハイライト -->
  <rect x="11" y="6" width="2" height="1" fill="#FFF"/>
  <rect x="10" y="8" width="1" height="2" fill="#FFF"/>
  <!-- コーン -->
  <rect x="10" y="14" width="4" height="2" fill="#DEB887"/>
  <rect x="9" y="16" width="6" height="2" fill="#D2691E"/>
  <rect x="10" y="18" width="4" height="2" fill="#DEB887"/>
  <rect x="11" y="20" width="2" height="2" fill="#D2691E"/>
  <!-- コーンの模様 -->
  <rect x="11" y="16" width="1" height="1" fill="#8B4513"/>
  <rect x="13" y="17" width="1" height="1" fill="#8B4513"/>
  <rect x="10" y="18" width="1" height="1" fill="#8B4513"/>
</svg>