<svg viewBox="0 0 24 24" xmlns="http://www.w3.org/2000/svg">
  <!-- ピクセルアート風の盾 -->
  <!-- 外枠 -->
  <rect x="8" y="4" width="8" height="2" fill="#C0C0C0"/>
  <rect x="6" y="6" width="12" height="2" fill="#C0C0C0"/>
  <rect x="5" y="8" width="14" height="6" fill="#C0C0C0"/>
  <rect x="6" y="14" width="12" height="2" fill="#C0C0C0"/>
  <rect x="7" y="16" width="10" height="2" fill="#C0C0C0"/>
  <rect x="9" y="18" width="6" height="2" fill="#C0C0C0"/>
  <rect x="11" y="20" width="2" height="1" fill="#C0C0C0"/>
  <!-- 内側の色 -->
  <rect x="9" y="5" width="6" height="1" fill="#DC143C"/>
  <rect x="7" y="7" width="10" height="1" fill="#DC143C"/>
  <rect x="6" y="9" width="12" height="4" fill="#DC143C"/>
  <rect x="7" y="13" width="10" height="2" fill="#DC143C"/>
  <rect x="8" y="15" width="8" height="2" fill="#DC143C"/>
  <rect x="10" y="17" width="4" height="2" fill="#DC143C"/>
  <!-- 中央の十字 -->
  <rect x="11" y="7" width="2" height="10" fill="#FFD700"/>
  <rect x="8" y="10" width="8" height="2" fill="#FFD700"/>
  <!-- 金属の光沢 -->
  <rect x="6" y="6" width="2" height="1" fill="#E5E5E5"/>
  <rect x="5" y="8" width="1" height="2" fill="#E5E5E5"/>
</svg>