<svg viewBox="0 0 24 24" xmlns="http://www.w3.org/2000/svg">
  <!-- Ghost Monster -->
  <!-- Body -->
  <rect x="7" y="4" width="10" height="14" fill="#E0E0E0"/>
  <rect x="6" y="5" width="1" height="12" fill="#E0E0E0"/>
  <rect x="17" y="5" width="1" height="12" fill="#E0E0E0"/>
  <rect x="5" y="6" width="1" height="10" fill="#E0E0E0"/>
  <rect x="18" y="6" width="1" height="10" fill="#E0E0E0"/>
  
  <!-- Bottom wavy edge -->
  <rect x="7" y="18" width="2" height="2" fill="#E0E0E0"/>
  <rect x="11" y="18" width="2" height="2" fill="#E0E0E0"/>
  <rect x="15" y="18" width="2" height="2" fill="#E0E0E0"/>
  <rect x="9" y="19" width="2" height="1" fill="#E0E0E0"/>
  <rect x="13" y="19" width="2" height="1" fill="#E0E0E0"/>
  
  <!-- Eyes -->
  <rect x="8" y="8" width="2" height="2" fill="#000000"/>
  <rect x="14" y="8" width="2" height="2" fill="#000000"/>
  
  <!-- Mouth -->
  <rect x="10" y="12" width="4" height="1" fill="#000000"/>
  <rect x="9" y="11" width="1" height="1" fill="#000000"/>
  <rect x="14" y="11" width="1" height="1" fill="#000000"/>
  
  <!-- Transparency effect -->
  <rect x="10" y="6" width="2" height="1" fill="#F5F5F5"/>
  <rect x="12" y="14" width="3" height="2" fill="#F5F5F5"/>
</svg>