<svg viewBox="0 0 24 24" xmlns="http://www.w3.org/2000/svg">
  <!-- Orc Monster -->
  <!-- Head -->
  <rect x="6" y="4" width="12" height="9" fill="#228B22"/>
  <rect x="5" y="5" width="1" height="7" fill="#228B22"/>
  <rect x="18" y="5" width="1" height="7" fill="#228B22"/>
  
  <!-- Tusks -->
  <rect x="7" y="11" width="1" height="2" fill="#FFFFE0"/>
  <rect x="16" y="11" width="1" height="2" fill="#FFFFE0"/>
  
  <!-- Eyes -->
  <rect x="8" y="7" width="2" height="2" fill="#8B0000"/>
  <rect x="14" y="7" width="2" height="2" fill="#8B0000"/>
  
  <!-- Nose -->
  <rect x="11" y="9" width="2" height="2" fill="#006400"/>
  
  <!-- Mouth -->
  <rect x="9" y="10" width="6" height="1" fill="#000000"/>
  
  <!-- Ears -->
  <rect x="4" y="6" width="1" height="3" fill="#228B22"/>
  <rect x="19" y="6" width="1" height="3" fill="#228B22"/>
  <rect x="3" y="7" width="1" height="1" fill="#228B22"/>
  <rect x="20" y="7" width="1" height="1" fill="#228B22"/>
  
  <!-- Body with armor -->
  <rect x="5" y="13" width="14" height="6" fill="#228B22"/>
  <rect x="4" y="14" width="1" height="4" fill="#228B22"/>
  <rect x="19" y="14" width="1" height="4" fill="#228B22"/>
  
  <!-- Armor pieces -->
  <rect x="7" y="14" width="10" height="2" fill="#696969"/>
  <rect x="6" y="15" width="1" height="1" fill="#696969"/>
  <rect x="17" y="15" width="1" height="1" fill="#696969"/>
  <rect x="9" y="17" width="6" height="1" fill="#696969"/>
  
  <!-- Arms -->
  <rect x="2" y="14" width="2" height="4" fill="#228B22"/>
  <rect x="20" y="14" width="2" height="4" fill="#228B22"/>
  <rect x="1" y="15" width="1" height="2" fill="#228B22"/>
  <rect x="22" y="15" width="1" height="2" fill="#228B22"/>
  
  <!-- Legs -->
  <rect x="6" y="19" width="4" height="3" fill="#228B22"/>
  <rect x="14" y="19" width="4" height="3" fill="#228B22"/>
  <rect x="7" y="22" width="3" height="1" fill="#228B22"/>
  <rect x="15" y="22" width="3" height="1" fill="#228B22"/>
</svg>