<svg viewBox="0 0 24 24" xmlns="http://www.w3.org/2000/svg">
  <!-- Succubus Monster (ロングヘア・ハイレグ水着風) -->
  <!-- Horns (小さめ) -->
  <rect x="8" y="2" width="1" height="2" fill="#8B0000"/>
  <rect x="15" y="2" width="1" height="2" fill="#8B0000"/>
  <rect x="7" y="3" width="2" height="1" fill="#DC143C"/>
  <rect x="15" y="3" width="2" height="1" fill="#DC143C"/>
  
  <!-- Long Hair -->
  <rect x="6" y="4" width="12" height="3" fill="#4B0082"/>
  <rect x="5" y="5" width="14" height="3" fill="#4B0082"/>
  <rect x="4" y="7" width="16" height="2" fill="#4B0082"/>
  <rect x="3" y="9" width="18" height="2" fill="#4B0082"/>
  <rect x="3" y="11" width="4" height="2" fill="#4B0082"/>
  <rect x="17" y="11" width="4" height="2" fill="#4B0082"/>
  <rect x="3" y="13" width="3" height="3" fill="#4B0082"/>
  <rect x="18" y="13" width="3" height="3" fill="#4B0082"/>
  
  <!-- Head -->
  <rect x="7" y="6" width="10" height="7" fill="#FFB6C1"/>
  <rect x="6" y="7" width="1" height="5" fill="#FFB6C1"/>
  <rect x="17" y="7" width="1" height="5" fill="#FFB6C1"/>
  
  <!-- Eyes (seductive) -->
  <rect x="8" y="8" width="3" height="2" fill="#FF1493"/>
  <rect x="13" y="8" width="3" height="2" fill="#FF1493"/>
  <rect x="9" y="8" width="1" height="1" fill="#FFFFFF"/>
  <rect x="14" y="8" width="1" height="1" fill="#FFFFFF"/>
  
  <!-- Mouth (sensual) -->
  <rect x="10" y="11" width="4" height="1" fill="#DC143C"/>
  <rect x="11" y="10" width="2" height="1" fill="#DC143C"/>
  
  <!-- Neck -->
  <rect x="10" y="13" width="4" height="1" fill="#FFB6C1"/>
  
  <!-- High-leg swimsuit body -->
  <rect x="9" y="14" width="6" height="4" fill="#8B0000"/>
  <rect x="8" y="15" width="8" height="2" fill="#8B0000"/>
  <!-- High-leg cut -->
  <rect x="7" y="17" width="2" height="2" fill="#FFB6C1"/>
  <rect x="15" y="17" width="2" height="2" fill="#FFB6C1"/>
  <rect x="9" y="18" width="6" height="2" fill="#8B0000"/>
  
  <!-- Arms -->
  <rect x="6" y="15" width="2" height="3" fill="#FFB6C1"/>
  <rect x="16" y="15" width="2" height="3" fill="#FFB6C1"/>
  
  <!-- Wings (bat-like) -->
  <rect x="2" y="13" width="3" height="4" fill="#4B0000"/>
  <rect x="19" y="13" width="3" height="4" fill="#4B0000"/>
  <rect x="1" y="14" width="1" height="2" fill="#4B0000"/>
  <rect x="22" y="14" width="1" height="2" fill="#4B0000"/>
  
  <!-- Exposed skin (stomach/sides) -->
  <rect x="7" y="16" width="1" height="2" fill="#FFB6C1"/>
  <rect x="16" y="16" width="1" height="2" fill="#FFB6C1"/>
  
  <!-- Legs -->
  <rect x="8" y="19" width="2" height="3" fill="#FFB6C1"/>
  <rect x="14" y="19" width="2" height="3" fill="#FFB6C1"/>
  <rect x="9" y="22" width="1" height="1" fill="#FFB6C1"/>
  <rect x="14" y="22" width="1" height="1" fill="#FFB6C1"/>
  
  <!-- Tail with heart tip -->
  <rect x="16" y="18" width="2" height="1" fill="#8B0000"/>
  <rect x="18" y="19" width="1" height="2" fill="#8B0000"/>
  <rect x="17" y="21" width="2" height="1" fill="#DC143C"/>
</svg>