<svg width="768" height="768" viewBox="0 0 48 48" xmlns="http://www.w3.org/2000/svg" shape-rendering="crispEdges"><rect x="38" y="18" width="1" height="1" fill="#A9A9A9"/><rect x="41" y="18" width="1" height="1" fill="#A9A9A9"/><rect x="38" y="19" width="1" height="1" fill="#808080"/><rect x="41" y="19" width="1" height="1" fill="#808080"/><rect x="36" y="20" width="8" height="1" fill="#696969"/><rect x="35" y="21" width="2" height="1" fill="#696969"/><rect x="39" y="21" width="6" height="1" fill="#696969"/><rect x="34" y="22" width="2" height="1" fill="#696969"/><rect x="38" y="22" width="6" height="2" fill="#696969"/><rect x="45" y="22" width="1" height="1" fill="#696969"/><rect x="34" y="23" width="1" height="2" fill="#696969"/><rect x="36" y="23" width="2" height="1" fill="#696969"/><rect x="44" y="23" width="1" height="1" fill="#696969"/><rect x="35" y="24" width="1" height="2" fill="#696969"/><rect x="37" y="24" width="6" height="2" fill="#696969"/><rect x="45" y="24" width="1" height="1" fill="#696969"/><rect x="36" y="25" width="1" height="2" fill="#696969"/><rect x="43" y="25" width="2" height="1" fill="#696969"/><rect x="37" y="26" width="1" height="2" fill="#696969"/><rect x="39" y="26" width="2" height="2" fill="#696969"/><rect x="42" y="26" width="2" height="1" fill="#696969"/><rect x="38" y="27" width="1" height="1" fill="#696969"/><rect x="41" y="27" width="1" height="1" fill="#696969"/><rect x="37" y="21" width="2" height="1" fill="#C0C0C0"/><rect x="36" y="22" width="2" height="1" fill="#C0C0C0"/><rect x="35" y="23" width="1" height="1" fill="#C0C0C0"/><rect x="44" y="22" width="1" height="1" fill="#2F2F2F"/><rect x="45" y="23" width="1" height="1" fill="#2F2F2F"/><rect x="44" y="24" width="1" height="1" fill="#2F2F2F"/><rect x="42" y="27" width="1" height="1" fill="#2F2F2F"/><rect x="36" y="24" width="1" height="1" fill="#4B4B4B"/><rect x="43" y="24" width="1" height="1" fill="#4B4B4B"/><rect x="38" y="26" width="1" height="1" fill="#4B4B4B"/><rect x="41" y="26" width="1" height="1" fill="#4B4B4B"/><rect x="38" y="28" width="1" height="2" fill="#8B4513"/><rect x="41" y="28" width="1" height="2" fill="#8B4513"/><rect x="39" y="29" width="2" height="1" fill="#8B4513"/></svg>