<svg viewBox="0 0 24 24" xmlns="http://www.w3.org/2000/svg">
  <!-- Sleek Android Robot Cat -->
  <!-- Ears with antennas -->
  <rect x="6" y="2" width="3" height="4" fill="#2d3748"/>
  <rect x="15" y="2" width="3" height="4" fill="#2d3748"/>
  <rect x="7" y="1" width="1" height="2" fill="#60a5fa"/>
  <rect x="16" y="1" width="1" height="2" fill="#60a5fa"/>
  <!-- Head -->
  <rect x="5" y="5" width="14" height="8" fill="#4a5568"/>
  <rect x="6" y="6" width="12" height="6" fill="#718096"/>
  <!-- Eyes (LED) -->
  <rect x="8" y="8" width="3" height="2" fill="#00ffff"/>
  <rect x="13" y="8" width="3" height="2" fill="#00ffff"/>
  <!-- Nose sensor -->
  <rect x="11" y="10" width="2" height="1" fill="#1a202c"/>
  <!-- Whisker sensors -->
  <rect x="2" y="8" width="3" height="1" fill="#94a3b8"/>
  <rect x="19" y="8" width="3" height="1" fill="#94a3b8"/>
  <rect x="3" y="10" width="2" height="1" fill="#94a3b8"/>
  <rect x="19" y="10" width="2" height="1" fill="#94a3b8"/>
  <!-- Body -->
  <rect x="7" y="13" width="10" height="6" fill="#4a5568"/>
  <rect x="8" y="14" width="8" height="4" fill="#718096"/>
  <!-- Power core -->
  <rect x="11" y="15" width="2" height="2" fill="#3b82f6"/>
  <!-- Legs -->
  <rect x="7" y="19" width="3" height="3" fill="#2d3748"/>
  <rect x="14" y="19" width="3" height="3" fill="#2d3748"/>
  <!-- Tail -->
  <rect x="17" y="15" width="2" height="2" fill="#4a5568"/>
  <rect x="19" y="13" width="2" height="2" fill="#4a5568"/>
  <rect x="20" y="11" width="2" height="2" fill="#4a5568"/>
  <rect x="21" y="10" width="1" height="1" fill="#60a5fa"/>
</svg>