<svg viewBox="0 0 24 24" xmlns="http://www.w3.org/2000/svg">
  <!-- Arctic Robot Penguin -->
  <!-- Head with thermal sensors -->
  <rect x="8" y="2" width="8" height="6" fill="#1e293b"/>
  <rect x="9" y="3" width="6" height="4" fill="#334155"/>
  <!-- Eyes (thermal imaging) -->
  <rect x="9" y="4" width="2" height="2" fill="#cbd5e0"/>
  <rect x="13" y="4" width="2" height="2" fill="#cbd5e0"/>
  <rect x="10" y="5" width="1" height="1" fill="#3b82f6"/>
  <rect x="14" y="5" width="1" height="1" fill="#3b82f6"/>
  <!-- Beak (ice drill) -->
  <rect x="11" y="6" width="2" height="1" fill="#f59e0b"/>
  <rect x="10" y="7" width="4" height="1" fill="#fbbf24"/>
  <!-- Body -->
  <rect x="7" y="8" width="10" height="9" fill="#1e293b"/>
  <rect x="8" y="9" width="8" height="7" fill="#334155"/>
  <!-- Chest (insulated core) -->
  <rect x="9" y="10" width="6" height="5" fill="#e2e8f0"/>
  <rect x="10" y="11" width="4" height="3" fill="#cbd5e0"/>
  <!-- Power indicator -->
  <rect x="11" y="12" width="2" height="1" fill="#10b981"/>
  <!-- Flippers (stabilizers) -->
  <rect x="5" y="10" width="2" height="5" fill="#1e293b"/>
  <rect x="17" y="10" width="2" height="5" fill="#1e293b"/>
  <rect x="4" y="11" width="1" height="3" fill="#475569"/>
  <rect x="19" y="11" width="1" height="3" fill="#475569"/>
  <!-- Feet (ice grippers) -->
  <rect x="6" y="17" width="5" height="4" fill="#0f172a"/>
  <rect x="13" y="17" width="5" height="4" fill="#0f172a"/>
  <!-- Ice spikes -->
  <rect x="7" y="21" width="1" height="1" fill="#60a5fa"/>
  <rect x="9" y="21" width="1" height="1" fill="#60a5fa"/>
  <rect x="14" y="21" width="1" height="1" fill="#60a5fa"/>
  <rect x="16" y="21" width="1" height="1" fill="#60a5fa"/>
  <!-- Status lights -->
  <rect x="11" y="8" width="2" height="1" fill="#ef4444"/>
</svg>