<svg viewBox="0 0 24 24" xmlns="http://www.w3.org/2000/svg">
  <!-- Flying Drone Robot Chicken -->
  <!-- Rotor blades -->
  <rect x="2" y="2" width="5" height="1" fill="#94a3b8"/>
  <rect x="17" y="2" width="5" height="1" fill="#94a3b8"/>
  <rect x="3" y="3" width="3" height="1" fill="#64748b"/>
  <rect x="18" y="3" width="3" height="1" fill="#64748b"/>
  <!-- Head with cockpit -->
  <rect x="9" y="4" width="6" height="2" fill="#ef4444"/>
  <rect x="8" y="6" width="8" height="7" fill="#4a5568"/>
  <rect x="9" y="7" width="6" height="5" fill="#718096"/>
  <!-- Camera eyes -->
  <rect x="10" y="8" width="2" height="2" fill="#10b981"/>
  <rect x="13" y="8" width="1" height="1" fill="#10b981"/>
  <!-- Beak sensor -->
  <rect x="11" y="10" width="3" height="1" fill="#f59e0b"/>
  <!-- Body -->
  <rect x="7" y="13" width="10" height="5" fill="#4a5568"/>
  <rect x="8" y="14" width="8" height="3" fill="#64748b"/>
  <!-- Wing thrusters -->
  <rect x="5" y="14" width="2" height="3" fill="#2d3748"/>
  <rect x="17" y="14" width="2" height="3" fill="#2d3748"/>
  <rect x="4" y="15" width="1" height="1" fill="#fbbf24"/>
  <rect x="19" y="15" width="1" height="1" fill="#fbbf24"/>
  <!-- Landing gear -->
  <rect x="8" y="18" width="2" height="3" fill="#1e293b"/>
  <rect x="14" y="18" width="2" height="3" fill="#1e293b"/>
  <rect x="7" y="21" width="4" height="1" fill="#94a3b8"/>
  <rect x="13" y="21" width="4" height="1" fill="#94a3b8"/>
  <!-- Status light -->
  <rect x="11" y="15" width="2" height="1" fill="#00ff00"/>
</svg>