<svg viewBox="0 0 24 24" xmlns="http://www.w3.org/2000/svg">
  <!-- Construction Robot Pig -->
  <!-- Head (reinforced) -->
  <rect x="7" y="4" width="10" height="10" fill="#4b5563"/>
  <rect x="8" y="5" width="8" height="8" fill="#6b7280"/>
  <!-- Ears (signal receivers) -->
  <rect x="5" y="5" width="2" height="3" fill="#374151"/>
  <rect x="17" y="5" width="2" height="3" fill="#374151"/>
  <rect x="5" y="4" width="2" height="1" fill="#fbbf24"/>
  <rect x="17" y="4" width="2" height="1" fill="#fbbf24"/>
  <!-- Eyes (work lights) -->
  <rect x="8" y="7" width="2" height="2" fill="#fbbf24"/>
  <rect x="14" y="7" width="2" height="2" fill="#fbbf24"/>
  <rect x="9" y="8" width="1" height="1" fill="#ffffff"/>
  <rect x="15" y="8" width="1" height="1" fill="#ffffff"/>
  <!-- Snout (drill attachment) -->
  <rect x="10" y="9" width="4" height="3" fill="#374151"/>
  <rect x="11" y="10" width="2" height="1" fill="#1f2937"/>
  <rect x="10" y="11" width="1" height="1" fill="#ef4444"/>
  <rect x="13" y="11" width="1" height="1" fill="#ef4444"/>
  <!-- Body (heavy duty) -->
  <rect x="6" y="14" width="12" height="5" fill="#374151"/>
  <rect x="7" y="15" width="10" height="3" fill="#4b5563"/>
  <!-- Construction lights -->
  <rect x="8" y="16" width="2" height="1" fill="#f59e0b"/>
  <rect x="11" y="16" width="2" height="1" fill="#f59e0b"/>
  <rect x="14" y="16" width="2" height="1" fill="#f59e0b"/>
  <!-- Legs (hydraulic) -->
  <rect x="6" y="19" width="4" height="3" fill="#1f2937"/>
  <rect x="14" y="19" width="4" height="3" fill="#1f2937"/>
  <!-- Hydraulic pistons -->
  <rect x="7" y="20" width="2" height="2" fill="#94a3b8"/>
  <rect x="15" y="20" width="2" height="2" fill="#94a3b8"/>
  <!-- Tail (power cable) -->
  <rect x="18" y="15" width="3" height="1" fill="#374151"/>
  <rect x="21" y="14" width="1" height="2" fill="#ef4444"/>
</svg>