<svg viewBox="0 0 24 24" xmlns="http://www.w3.org/2000/svg">
  <!-- Guard Robot Dog -->
  <!-- Head -->
  <rect x="8" y="3" width="8" height="8" fill="#374151"/>
  <rect x="9" y="4" width="6" height="6" fill="#4b5563"/>
  <!-- Ears (sensors) -->
  <rect x="6" y="4" width="2" height="4" fill="#1f2937"/>
  <rect x="16" y="4" width="2" height="4" fill="#1f2937"/>
  <rect x="6" y="3" width="2" height="1" fill="#ef4444"/>
  <rect x="16" y="3" width="2" height="1" fill="#ef4444"/>
  <!-- Eyes (scanners) -->
  <rect x="9" y="6" width="2" height="2" fill="#dc2626"/>
  <rect x="13" y="6" width="2" height="2" fill="#dc2626"/>
  <!-- Snout with sensor -->
  <rect x="10" y="8" width="4" height="2" fill="#1f2937"/>
  <rect x="11" y="9" width="2" height="1" fill="#fbbf24"/>
  <!-- Body (armored) -->
  <rect x="7" y="11" width="10" height="7" fill="#374151"/>
  <rect x="8" y="12" width="8" height="5" fill="#4b5563"/>
  <!-- Chest armor -->
  <rect x="9" y="13" width="6" height="3" fill="#6b7280"/>
  <rect x="11" y="14" width="2" height="1" fill="#10b981"/>
  <!-- Legs (reinforced) -->
  <rect x="6" y="17" width="4" height="4" fill="#1f2937"/>
  <rect x="14" y="17" width="4" height="4" fill="#1f2937"/>
  <!-- Paws -->
  <rect x="5" y="20" width="2" height="2" fill="#111827"/>
  <rect x="8" y="20" width="2" height="2" fill="#111827"/>
  <rect x="14" y="20" width="2" height="2" fill="#111827"/>
  <rect x="17" y="20" width="2" height="2" fill="#111827"/>
  <!-- Tail antenna -->
  <rect x="17" y="12" width="3" height="1" fill="#374151"/>
  <rect x="20" y="11" width="1" height="1" fill="#3b82f6"/>
</svg>