<svg viewBox="0 0 24 24" xmlns="http://www.w3.org/2000/svg">
  <!-- Scout Robot Fox -->
  <!-- Ears with radar -->
  <rect x="6" y="2" width="4" height="5" fill="#475569"/>
  <rect x="14" y="2" width="4" height="5" fill="#475569"/>
  <rect x="7" y="3" width="2" height="2" fill="#94a3b8"/>
  <rect x="15" y="3" width="2" height="2" fill="#94a3b8"/>
  <rect x="7" y="2" width="2" height="1" fill="#f59e0b"/>
  <rect x="15" y="2" width="2" height="1" fill="#f59e0b"/>
  <!-- Head -->
  <rect x="5" y="6" width="14" height="8" fill="#475569"/>
  <rect x="6" y="7" width="12" height="6" fill="#64748b"/>
  <!-- Eyes (night vision) -->
  <rect x="8" y="8" width="2" height="2" fill="#10b981"/>
  <rect x="14" y="8" width="2" height="2" fill="#10b981"/>
  <rect x="8" y="8" width="1" height="1" fill="#34d399"/>
  <rect x="14" y="8" width="1" height="1" fill="#34d399"/>
  <!-- Snout scanner -->
  <rect x="10" y="10" width="4" height="2" fill="#1e293b"/>
  <rect x="11" y="11" width="2" height="1" fill="#3b82f6"/>
  <!-- Body (stealth design) -->
  <rect x="4" y="14" width="16" height="5" fill="#334155"/>
  <rect x="5" y="15" width="14" height="3" fill="#475569"/>
  <!-- Stealth panels -->
  <rect x="7" y="16" width="3" height="1" fill="#1e293b"/>
  <rect x="11" y="16" width="3" height="1" fill="#1e293b"/>
  <rect x="15" y="16" width="3" height="1" fill="#1e293b"/>
  <!-- Legs -->
  <rect x="7" y="19" width="3" height="3" fill="#1e293b"/>
  <rect x="14" y="19" width="3" height="3" fill="#1e293b"/>
  <!-- Tail with transmitter -->
  <rect x="18" y="15" width="3" height="1" fill="#475569"/>
  <rect x="20" y="14" width="2" height="1" fill="#475569"/>
  <rect x="21" y="13" width="1" height="1" fill="#60a5fa"/>
</svg>