<svg viewBox="0 0 24 24" xmlns="http://www.w3.org/2000/svg">
  <!-- Speed Robot Rabbit -->
  <!-- Ears (speed sensors) -->
  <rect x="8" y="1" width="3" height="6" fill="#475569"/>
  <rect x="13" y="1" width="3" height="6" fill="#475569"/>
  <rect x="9" y="2" width="1" height="4" fill="#94a3b8"/>
  <rect x="14" y="2" width="1" height="4" fill="#94a3b8"/>
  <rect x="8" y="0" width="3" height="1" fill="#3b82f6"/>
  <rect x="13" y="0" width="3" height="1" fill="#3b82f6"/>
  <!-- Head (aerodynamic) -->
  <rect x="7" y="7" width="10" height="7" fill="#4b5563"/>
  <rect x="8" y="8" width="8" height="5" fill="#64748b"/>
  <!-- Eyes (speed tracking) -->
  <rect x="9" y="9" width="2" height="2" fill="#ef4444"/>
  <rect x="13" y="9" width="2" height="2" fill="#ef4444"/>
  <!-- Nose (wind sensor) -->
  <rect x="11" y="11" width="2" height="1" fill="#fbbf24"/>
  <!-- Mouth (intake) -->
  <rect x="10" y="12" width="4" height="1" fill="#1e293b"/>
  <!-- Body (streamlined) -->
  <rect x="6" y="14" width="12" height="5" fill="#334155"/>
  <rect x="7" y="15" width="10" height="3" fill="#475569"/>
  <!-- Speed stripes -->
  <rect x="8" y="16" width="8" height="1" fill="#60a5fa"/>
  <!-- Turbo boosters -->
  <rect x="5" y="16" width="2" height="2" fill="#1f2937"/>
  <rect x="17" y="16" width="2" height="2" fill="#1f2937"/>
  <rect x="4" y="17" width="1" height="1" fill="#f59e0b"/>
  <rect x="19" y="17" width="1" height="1" fill="#f59e0b"/>
  <!-- Legs (spring loaded) -->
  <rect x="7" y="19" width="4" height="3" fill="#1e293b"/>
  <rect x="13" y="19" width="4" height="3" fill="#1e293b"/>
  <!-- Spring detail -->
  <rect x="8" y="20" width="2" height="1" fill="#3b82f6"/>
  <rect x="14" y="20" width="2" height="1" fill="#3b82f6"/>
  <rect x="8" y="21" width="2" height="1" fill="#60a5fa"/>
  <rect x="14" y="21" width="2" height="1" fill="#60a5fa"/>
</svg>