<svg viewBox="0 0 24 24" xmlns="http://www.w3.org/2000/svg">
  <!-- Surveillance Robot Owl -->
  <!-- Head with rotating sensors -->
  <rect x="7" y="2" width="10" height="11" fill="#374151"/>
  <rect x="8" y="3" width="8" height="9" fill="#4b5563"/>
  <!-- Ear sensors -->
  <rect x="6" y="3" width="2" height="3" fill="#1f2937"/>
  <rect x="16" y="3" width="2" height="3" fill="#1f2937"/>
  <rect x="5" y="2" width="2" height="1" fill="#ef4444"/>
  <rect x="17" y="2" width="2" height="1" fill="#ef4444"/>
  <!-- Eyes (360° cameras) -->
  <rect x="8" y="5" width="3" height="3" fill="#1e293b"/>
  <rect x="13" y="5" width="3" height="3" fill="#1e293b"/>
  <rect x="9" y="6" width="2" height="2" fill="#00ffff"/>
  <rect x="14" y="6" width="2" height="2" fill="#00ffff"/>
  <rect x="9" y="6" width="1" height="1" fill="#ffffff"/>
  <rect x="14" y="6" width="1" height="1" fill="#ffffff"/>
  <!-- Beak (sensor array) -->
  <rect x="11" y="8" width="2" height="2" fill="#f59e0b"/>
  <rect x="10" y="9" width="4" height="1" fill="#fbbf24"/>
  <!-- Chest panel -->
  <rect x="9" y="10" width="6" height="2" fill="#6b7280"/>
  <rect x="11" y="11" width="2" height="1" fill="#10b981"/>
  <!-- Body -->
  <rect x="6" y="13" width="12" height="5" fill="#374151"/>
  <rect x="7" y="14" width="10" height="3" fill="#4b5563"/>
  <!-- Wing panels (solar) -->
  <rect x="4" y="14" width="2" height="3" fill="#1e293b"/>
  <rect x="18" y="14" width="2" height="3" fill="#1e293b"/>
  <rect x="3" y="15" width="1" height="1" fill="#3b82f6"/>
  <rect x="20" y="15" width="1" height="1" fill="#3b82f6"/>
  <!-- Talons (grippers) -->
  <rect x="8" y="18" width="3" height="3" fill="#1f2937"/>
  <rect x="13" y="18" width="3" height="3" fill="#1f2937"/>
  <rect x="7" y="21" width="1" height="1" fill="#fbbf24"/>
  <rect x="9" y="21" width="1" height="1" fill="#fbbf24"/>
  <rect x="11" y="21" width="1" height="1" fill="#fbbf24"/>
  <rect x="14" y="21" width="1" height="1" fill="#fbbf24"/>
  <rect x="16" y="21" width="1" height="1" fill="#fbbf24"/>
</svg>