<svg viewBox="0 0 24 24" xmlns="http://www.w3.org/2000/svg">
  <!-- Small Utility Robot Hamster -->
  <!-- Ears (tool compartments) -->
  <rect x="6" y="4" width="3" height="3" fill="#4b5563"/>
  <rect x="15" y="4" width="3" height="3" fill="#4b5563"/>
  <rect x="7" y="5" width="1" height="1" fill="#fbbf24"/>
  <rect x="16" y="5" width="1" height="1" fill="#fbbf24"/>
  <!-- Head -->
  <rect x="5" y="7" width="14" height="8" fill="#6b7280"/>
  <rect x="6" y="8" width="12" height="6" fill="#9ca3af"/>
  <!-- Eyes (sensors) -->
  <rect x="8" y="9" width="2" height="2" fill="#3b82f6"/>
  <rect x="14" y="9" width="2" height="2" fill="#3b82f6"/>
  <!-- Nose (tool port) -->
  <rect x="11" y="11" width="2" height="1" fill="#ef4444"/>
  <!-- Mouth (storage) -->
  <rect x="9" y="12" width="6" height="1" fill="#374151"/>
  <rect x="10" y="13" width="4" height="1" fill="#1f2937"/>
  <!-- Body (compact design) -->
  <rect x="4" y="15" width="16" height="5" fill="#6b7280"/>
  <rect x="5" y="16" width="14" height="3" fill="#9ca3af"/>
  <!-- Storage indicators -->
  <rect x="7" y="17" width="2" height="1" fill="#10b981"/>
  <rect x="10" y="17" width="2" height="1" fill="#10b981"/>
  <rect x="13" y="17" width="2" height="1" fill="#10b981"/>
  <rect x="16" y="17" width="2" height="1" fill="#10b981"/>
  <!-- Wheels -->
  <rect x="6" y="20" width="4" height="2" fill="#1f2937"/>
  <rect x="14" y="20" width="4" height="2" fill="#1f2937"/>
  <rect x="7" y="21" width="2" height="1" fill="#fbbf24"/>
  <rect x="15" y="21" width="2" height="1" fill="#fbbf24"/>
</svg>