<svg width="768" height="768" viewBox="0 0 48 48" xmlns="http://www.w3.org/2000/svg" shape-rendering="crispEdges"><rect x="20" y="27" width="1" height="2" fill="#C0C0C0"/><rect x="27" y="27" width="1" height="2" fill="#C0C0C0"/><rect x="21" y="29" width="6" height="1" fill="#FFD700"/><rect x="20" y="30" width="1" height="1" fill="#FFD700"/><rect x="23" y="30" width="5" height="1" fill="#FFD700"/><rect x="19" y="31" width="1" height="3" fill="#FFD700"/><rect x="21" y="31" width="1" height="1" fill="#FFD700"/><rect x="26" y="31" width="3" height="1" fill="#FFD700"/><rect x="20" y="32" width="1" height="3" fill="#FFD700"/><rect x="27" y="32" width="2" height="1" fill="#FFD700"/><rect x="21" y="33" width="1" height="3" fill="#FFD700"/><rect x="26" y="33" width="1" height="1" fill="#FFD700"/><rect x="28" y="33" width="1" height="1" fill="#FFD700"/><rect x="22" y="34" width="4" height="1" fill="#FFD700"/><rect x="27" y="34" width="1" height="1" fill="#FFD700"/><rect x="22" y="35" width="2" height="1" fill="#FFD700"/><rect x="26" y="35" width="1" height="1" fill="#FFD700"/><rect x="23" y="36" width="2" height="1" fill="#FFD700"/><rect x="21" y="30" width="2" height="1" fill="#FFFFE0"/><rect x="20" y="31" width="1" height="1" fill="#FFFFE0"/><rect x="22" y="31" width="4" height="1" fill="#9370DB"/><rect x="21" y="32" width="2" height="1" fill="#9370DB"/><rect x="25" y="32" width="2" height="1" fill="#9370DB"/><rect x="22" y="33" width="4" height="1" fill="#9370DB"/><rect x="23" y="32" width="2" height="1" fill="#DDA0DD"/><rect x="27" y="33" width="1" height="1" fill="#DAA520"/><rect x="26" y="34" width="1" height="1" fill="#DAA520"/><rect x="24" y="35" width="2" height="1" fill="#DAA520"/></svg>