<svg width="768" height="768" viewBox="0 0 48 48" xmlns="http://www.w3.org/2000/svg" shape-rendering="crispEdges"><rect x="31" y="27" width="1" height="6" fill="#F5DEB3"/><rect x="32" y="28" width="1" height="4" fill="#F5DEB3"/><rect x="39" y="28" width="4" height="3" fill="#F5DEB3"/><rect x="34" y="29" width="4" height="3" fill="#F5DEB3"/><rect x="32" y="33" width="1" height="1" fill="#F5DEB3"/><rect x="40" y="27" width="2" height="1" fill="#DEB887"/><rect x="35" y="28" width="2" height="1" fill="#DEB887"/><rect x="38" y="28" width="1" height="3" fill="#DEB887"/><rect x="33" y="29" width="1" height="3" fill="#DEB887"/><rect x="43" y="27" width="3" height="1" fill="#8B0000"/><rect x="44" y="28" width="1" height="6" fill="#8B0000"/><rect x="43" y="30" width="1" height="1" fill="#8B0000"/><rect x="45" y="30" width="1" height="1" fill="#8B0000"/><rect x="45" y="32" width="1" height="1" fill="#8B0000"/><rect x="43" y="33" width="1" height="2" fill="#8B0000"/><rect x="44" y="36" width="1" height="4" fill="#8B0000"/><rect x="30" y="28" width="1" height="1" fill="#FFE4E1"/><rect x="30" y="30" width="1" height="1" fill="#FFE4E1"/><rect x="30" y="32" width="1" height="1" fill="#FFE4E1"/><rect x="43" y="28" width="1" height="2" fill="#DC143C"/><rect x="46" y="28" width="1" height="1" fill="#DC143C"/><rect x="43" y="31" width="1" height="2" fill="#DC143C"/><rect x="42" y="33" width="1" height="3" fill="#DC143C"/><rect x="45" y="33" width="1" height="3" fill="#DC143C"/><rect x="44" y="34" width="1" height="2" fill="#DC143C"/><rect x="43" y="35" width="1" height="6" fill="#DC143C"/><rect x="46" y="36" width="1" height="1" fill="#DC143C"/><rect x="40" y="31" width="2" height="1" fill="#FFE4B5"/><rect x="35" y="32" width="2" height="1" fill="#FFE4B5"/></svg>