<svg width="768" height="768" viewBox="0 0 48 48" xmlns="http://www.w3.org/2000/svg" shape-rendering="crispEdges"><rect x="38" y="26" width="1" height="1" fill="#228B22"/><rect x="41" y="26" width="1" height="1" fill="#7CFC00"/><rect x="38" y="35" width="1" height="1" fill="#7CFC00"/><rect x="41" y="36" width="1" height="1" fill="#7CFC00"/><rect x="39" y="27" width="1" height="1" fill="#32CD32"/><rect x="38" y="34" width="4" height="1" fill="#32CD32"/><rect x="39" y="35" width="4" height="1" fill="#32CD32"/><rect x="37" y="36" width="2" height="3" fill="#32CD32"/><rect x="42" y="36" width="1" height="3" fill="#32CD32"/><rect x="41" y="37" width="1" height="3" fill="#32CD32"/><rect x="39" y="38" width="2" height="2" fill="#32CD32"/><rect x="38" y="39" width="1" height="1" fill="#32CD32"/><rect x="38" y="28" width="4" height="2" fill="#2F2F2F"/><rect x="39" y="30" width="2" height="1" fill="#2F2F2F"/><rect x="39" y="31" width="2" height="3" fill="#808080"/><rect x="37" y="33" width="2" height="1" fill="#808080"/><rect x="41" y="33" width="2" height="1" fill="#808080"/><rect x="36" y="34" width="1" height="1" fill="#808080"/><rect x="42" y="34" width="2" height="1" fill="#808080"/><rect x="43" y="35" width="1" height="5" fill="#808080"/><rect x="36" y="36" width="1" height="4" fill="#808080"/><rect x="37" y="39" width="1" height="2" fill="#808080"/><rect x="42" y="39" width="1" height="2" fill="#808080"/><rect x="38" y="40" width="4" height="1" fill="#808080"/><rect x="37" y="34" width="1" height="2" fill="#C0C0C0"/><rect x="36" y="35" width="1" height="1" fill="#A9A9A9"/><rect x="39" y="36" width="2" height="2" fill="#000"/></svg>