<svg width="768" height="768" viewBox="0 0 48 48" xmlns="http://www.w3.org/2000/svg" shape-rendering="crispEdges"><rect x="37" y="15" width="3" height="1" fill="#2F2F2F"/><rect x="37" y="16" width="3" height="1" fill="#4A4A4A"/><rect x="38" y="17" width="3" height="1" fill="#C0C0C0"/><rect x="44" y="17" width="1" height="2" fill="#C0C0C0"/><rect x="41" y="18" width="3" height="1" fill="#C0C0C0"/><rect x="45" y="18" width="1" height="3" fill="#C0C0C0"/><rect x="41" y="19" width="2" height="1" fill="#C0C0C0"/><rect x="42" y="20" width="3" height="2" fill="#C0C0C0"/><rect x="43" y="22" width="2" height="1" fill="#C0C0C0"/><rect x="43" y="23" width="1" height="1" fill="#C0C0C0"/><rect x="41" y="17" width="3" height="1" fill="#E5E5E5"/><rect x="43" y="19" width="2" height="1" fill="#E5E5E5"/><rect x="38" y="18" width="1" height="20" fill="#8B4513"/><rect x="39" y="18" width="1" height="20" fill="#654321"/><rect x="40" y="18" width="1" height="3" fill="#808080"/><rect x="37" y="38" width="4" height="1" fill="#8B0000"/></svg>