<svg width="768" height="768" viewBox="0 0 48 48" xmlns="http://www.w3.org/2000/svg" shape-rendering="crispEdges"><rect x="34" y="23" width="1" height="1" fill="#FFA500"/><rect x="41" y="23" width="1" height="1" fill="#FFA500"/><rect x="37" y="26" width="2" height="2" fill="#FFA500"/><rect x="36" y="27" width="1" height="2" fill="#FFA500"/><rect x="39" y="27" width="1" height="2" fill="#FFA500"/><rect x="37" y="30" width="2" height="1" fill="#FFA500"/><rect x="37" y="23" width="1" height="1" fill="#FFD700"/><rect x="33" y="24" width="1" height="1" fill="#FF6347"/><rect x="42" y="24" width="1" height="1" fill="#FF6347"/><rect x="36" y="24" width="1" height="3" fill="#FF4500"/><rect x="39" y="24" width="1" height="3" fill="#FF4500"/><rect x="35" y="25" width="1" height="4" fill="#FF4500"/><rect x="40" y="25" width="1" height="4" fill="#FF4500"/><rect x="34" y="26" width="1" height="2" fill="#FF4500"/><rect x="41" y="26" width="1" height="2" fill="#FF4500"/><rect x="36" y="29" width="1" height="2" fill="#FF4500"/><rect x="39" y="29" width="1" height="2" fill="#FF4500"/><rect x="32" y="26" width="1" height="1" fill="#FF8C00"/><rect x="43" y="26" width="1" height="1" fill="#FF8C00"/><rect x="37" y="28" width="2" height="1" fill="#FFE4B5"/><rect x="37" y="29" width="2" height="1" fill="#FF0"/><rect x="36" y="31" width="4" height="1" fill="#4A4A4A"/><rect x="36" y="32" width="4" height="1" fill="#2F2F2F"/><rect x="36" y="41" width="4" height="1" fill="#2F2F2F"/><rect x="37" y="33" width="2" height="8" fill="#8B4513"/><rect x="36" y="34" width="1" height="6" fill="#654321"/><rect x="39" y="34" width="1" height="6" fill="#A0522D"/></svg>