<svg width="768" height="768" viewBox="0 0 48 48" xmlns="http://www.w3.org/2000/svg" shape-rendering="crispEdges"><rect x="38" y="32" width="8" height="2" fill="#2F4F4F"/><rect x="37" y="33" width="1" height="3" fill="#2F4F4F"/><rect x="46" y="33" width="1" height="3" fill="#2F4F4F"/><rect x="38" y="34" width="1" height="1" fill="#2F4F4F"/><rect x="45" y="34" width="1" height="1" fill="#2F4F4F"/><rect x="39" y="34" width="6" height="2" fill="#C0C0C0"/><rect x="38" y="35" width="1" height="1" fill="#C0C0C0"/><rect x="45" y="35" width="1" height="4" fill="#C0C0C0"/><rect x="39" y="36" width="1" height="5" fill="#C0C0C0"/><rect x="42" y="36" width="1" height="2" fill="#C0C0C0"/><rect x="40" y="37" width="2" height="1" fill="#C0C0C0"/><rect x="43" y="37" width="2" height="1" fill="#C0C0C0"/><rect x="40" y="38" width="1" height="3" fill="#C0C0C0"/><rect x="44" y="38" width="1" height="3" fill="#C0C0C0"/><rect x="41" y="40" width="1" height="1" fill="#C0C0C0"/><rect x="43" y="40" width="1" height="1" fill="#C0C0C0"/><rect x="38" y="36" width="1" height="3" fill="#808080"/><rect x="46" y="36" width="1" height="3" fill="#808080"/><rect x="40" y="36" width="2" height="1" fill="#000"/><rect x="43" y="36" width="2" height="1" fill="#000"/><rect x="41" y="38" width="3" height="1" fill="#000"/><rect x="41" y="39" width="3" height="1" fill="#8B0000"/><rect x="40" y="41" width="5" height="1" fill="#8B0000"/><rect x="40" y="42" width="1" height="1" fill="#8B0000"/><rect x="42" y="42" width="1" height="2" fill="#8B0000"/><rect x="44" y="42" width="1" height="1" fill="#8B0000"/><rect x="42" y="40" width="1" height="1" fill="#DC143C"/><rect x="39" y="42" width="1" height="1" fill="#DC143C"/><rect x="41" y="42" width="1" height="2" fill="#DC143C"/><rect x="43" y="42" width="1" height="1" fill="#DC143C"/><rect x="45" y="42" width="1" height="1" fill="#DC143C"/></svg>