<svg width="768" height="768" viewBox="0 0 48 48" xmlns="http://www.w3.org/2000/svg" shape-rendering="crispEdges"><rect x="40" y="20" width="1" height="1" fill="#FFD700"/><rect x="36" y="23" width="1" height="1" fill="#FFD700"/><rect x="44" y="23" width="1" height="1" fill="#FFD700"/><rect x="40" y="27" width="1" height="1" fill="#FFD700"/><rect x="38" y="22" width="5" height="1" fill="#9370DB"/><rect x="37" y="23" width="2" height="2" fill="#9370DB"/><rect x="41" y="23" width="3" height="1" fill="#9370DB"/><rect x="39" y="24" width="1" height="3" fill="#9370DB"/><rect x="42" y="24" width="2" height="1" fill="#9370DB"/><rect x="40" y="25" width="2" height="2" fill="#9370DB"/><rect x="38" y="26" width="1" height="1" fill="#9370DB"/><rect x="42" y="26" width="1" height="1" fill="#9370DB"/><rect x="39" y="23" width="2" height="1" fill="#DDA0DD"/><rect x="40" y="24" width="2" height="1" fill="#DDA0DD"/><rect x="37" y="25" width="2" height="1" fill="#6A0DAD"/><rect x="42" y="25" width="2" height="1" fill="#6A0DAD"/><rect x="39" y="27" width="1" height="16" fill="#654321"/><rect x="40" y="41" width="1" height="3" fill="#654321"/><rect x="41" y="27" width="1" height="8" fill="#A0522D"/><rect x="40" y="28" width="1" height="13" fill="#8B4513"/><rect x="41" y="35" width="1" height="8" fill="#8B4513"/></svg>